%TF.GenerationSoftware,KiCad,Pcbnew,(6.0.4-0)*%
%TF.CreationDate,2022-08-15T14:03:23-05:00*%
%TF.ProjectId,CowPi-mk3a,436f7750-692d-46d6-9b33-612e6b696361,mk3a*%
%TF.SameCoordinates,PX43d3480PY8c7ecc0*%
%TF.FileFunction,Soldermask,Top*%
%TF.FilePolarity,Negative*%
%FSLAX46Y46*%
G04 Gerber Fmt 4.6, Leading zero omitted, Abs format (unit mm)*
G04 Created by KiCad (PCBNEW (6.0.4-0)) date 2022-08-15 14:03:23*
%MOMM*%
%LPD*%
G01*
G04 APERTURE LIST*
G04 Aperture macros list*
%AMRoundRect*
0 Rectangle with rounded corners*
0 $1 Rounding radius*
0 $2 $3 $4 $5 $6 $7 $8 $9 X,Y pos of 4 corners*
0 Add a 4 corners polygon primitive as box body*
4,1,4,$2,$3,$4,$5,$6,$7,$8,$9,$2,$3,0*
0 Add four circle primitives for the rounded corners*
1,1,$1+$1,$2,$3*
1,1,$1+$1,$4,$5*
1,1,$1+$1,$6,$7*
1,1,$1+$1,$8,$9*
0 Add four rect primitives between the rounded corners*
20,1,$1+$1,$2,$3,$4,$5,0*
20,1,$1+$1,$4,$5,$6,$7,0*
20,1,$1+$1,$6,$7,$8,$9,0*
20,1,$1+$1,$8,$9,$2,$3,0*%
%AMFreePoly0*
4,1,22,0.550000,-0.750000,0.000000,-0.750000,0.000000,-0.745033,-0.079941,-0.743568,-0.215256,-0.701293,-0.333266,-0.622738,-0.424486,-0.514219,-0.481581,-0.384460,-0.499164,-0.250000,-0.500000,-0.250000,-0.500000,0.250000,-0.499164,0.250000,-0.499963,0.256109,-0.478152,0.396186,-0.417904,0.524511,-0.324060,0.630769,-0.204165,0.706417,-0.067858,0.745374,0.000000,0.744959,0.000000,0.750000,
0.550000,0.750000,0.550000,-0.750000,0.550000,-0.750000,$1*%
%AMFreePoly1*
4,1,20,0.000000,0.744959,0.073905,0.744508,0.209726,0.703889,0.328688,0.626782,0.421226,0.519385,0.479903,0.390333,0.500000,0.250000,0.500000,-0.250000,0.499851,-0.262216,0.476331,-0.402017,0.414519,-0.529596,0.319384,-0.634700,0.198574,-0.708877,0.061801,-0.746166,0.000000,-0.745033,0.000000,-0.750000,-0.550000,-0.750000,-0.550000,0.750000,0.000000,0.750000,0.000000,0.744959,
0.000000,0.744959,$1*%
G04 Aperture macros list end*
%ADD10R,2.200000X2.200000*%
%ADD11O,2.200000X2.200000*%
%ADD12FreePoly0,90.000000*%
%ADD13R,1.500000X1.000000*%
%ADD14FreePoly1,90.000000*%
%ADD15C,3.500000*%
%ADD16C,2.000000*%
%ADD17R,1.600000X1.600000*%
%ADD18O,1.600000X1.600000*%
%ADD19O,1.500000X2.500000*%
%ADD20R,1.500000X2.500000*%
%ADD21C,1.600000*%
%ADD22R,1.800000X1.800000*%
%ADD23C,1.800000*%
%ADD24R,1.700000X1.700000*%
%ADD25O,1.700000X1.700000*%
%ADD26R,1.050000X1.500000*%
%ADD27O,1.050000X1.500000*%
%ADD28R,3.500000X3.500000*%
%ADD29RoundRect,0.750000X-1.000000X0.750000X-1.000000X-0.750000X1.000000X-0.750000X1.000000X0.750000X0*%
%ADD30RoundRect,0.875000X-0.875000X0.875000X-0.875000X-0.875000X0.875000X-0.875000X0.875000X0.875000X0*%
%ADD31C,3.000000*%
%ADD32R,1.800000X2.600000*%
%ADD33O,1.800000X2.600000*%
G04 APERTURE END LIST*
D10*
%TO.C,D13*%
X114100764Y31851962D03*
D11*
X114100764Y29311962D03*
%TD*%
D12*
%TO.C,JP4*%
X12700000Y58420000D03*
D13*
X12700000Y59720000D03*
D14*
X12700000Y61020000D03*
%TD*%
D10*
%TO.C,D10*%
X102078410Y19866052D03*
D11*
X102078410Y17326052D03*
%TD*%
D15*
%TO.C,H2*%
X138081045Y5080000D03*
%TD*%
D16*
%TO.C,SW20*%
X135330000Y23320000D03*
X128830000Y23320000D03*
X135330000Y27820000D03*
X128830000Y27820000D03*
%TD*%
D17*
%TO.C,A1*%
X35560000Y54610000D03*
D18*
X35560000Y57150000D03*
X35560000Y59690000D03*
X35560000Y62230000D03*
X35560000Y64770000D03*
X35560000Y67310000D03*
X35560000Y69850000D03*
X35560000Y72390000D03*
X35560000Y74930000D03*
X35560000Y77470000D03*
X35560000Y80010000D03*
X35560000Y82550000D03*
X35560000Y85090000D03*
X35560000Y87630000D03*
X35560000Y90170000D03*
X20320000Y90170000D03*
X20320000Y87630000D03*
X20320000Y85090000D03*
X20320000Y82550000D03*
X20320000Y80010000D03*
X20320000Y77470000D03*
X20320000Y74930000D03*
X20320000Y72390000D03*
X20320000Y69850000D03*
X20320000Y67310000D03*
X20320000Y64770000D03*
X20320000Y62230000D03*
X20320000Y59690000D03*
X20320000Y57150000D03*
X20320000Y54610000D03*
%TD*%
D19*
%TO.C,SW18*%
X33158583Y9414436D03*
D20*
X28078583Y9414436D03*
D19*
X30618583Y9414436D03*
%TD*%
D10*
%TO.C,D18*%
X126084922Y19855059D03*
D11*
X126084922Y17315059D03*
%TD*%
D10*
%TO.C,D7*%
X102078410Y55890994D03*
D11*
X102078410Y53350994D03*
%TD*%
D16*
%TO.C,J6*%
X39396444Y55184682D03*
%TD*%
D21*
%TO.C,R2*%
X41910000Y89720000D03*
D18*
X54610000Y89720000D03*
%TD*%
D15*
%TO.C,H1*%
X4080000Y94064675D03*
%TD*%
D10*
%TO.C,D15*%
X126084922Y55880001D03*
D11*
X126084922Y53340001D03*
%TD*%
D16*
%TO.C,SW1*%
X7909999Y67870000D03*
X7909999Y74370000D03*
X12409999Y67870000D03*
X12409999Y74370000D03*
%TD*%
D10*
%TO.C,D14*%
X114100764Y19868583D03*
D11*
X114100764Y17328583D03*
%TD*%
D17*
%TO.C,U1*%
X27940000Y32121974D03*
D18*
X27940000Y29581974D03*
X27940000Y27041974D03*
X27940000Y24501974D03*
X27940000Y21961974D03*
X27940000Y19421974D03*
X27940000Y16881974D03*
X35560000Y16881974D03*
X35560000Y19421974D03*
X35560000Y21961974D03*
X35560000Y24501974D03*
X35560000Y27041974D03*
X35560000Y29581974D03*
X35560000Y32121974D03*
%TD*%
D16*
%TO.C,SW2*%
X8660000Y25400000D03*
X8660000Y18900000D03*
X4160000Y25400000D03*
X4160000Y18900000D03*
%TD*%
%TO.C,SW4*%
X99330000Y47320000D03*
X92830000Y47320000D03*
X99330000Y51820000D03*
X92830000Y51820000D03*
%TD*%
D17*
%TO.C,U2*%
X64750233Y48365106D03*
D18*
X67290233Y48365106D03*
X69830233Y48365106D03*
X72370233Y48365106D03*
X74910233Y48365106D03*
X77450233Y48365106D03*
X79990233Y48365106D03*
X82530233Y48365106D03*
X82530233Y55985106D03*
X79990233Y55985106D03*
X77450233Y55985106D03*
X74910233Y55985106D03*
X72370233Y55985106D03*
X69830233Y55985106D03*
X67290233Y55985106D03*
X64750233Y55985106D03*
%TD*%
D16*
%TO.C,SW19*%
X135330000Y35320000D03*
X128830000Y35320000D03*
X135330000Y39820000D03*
X128830000Y39820000D03*
%TD*%
D10*
%TO.C,D12*%
X114100764Y43880968D03*
D11*
X114100764Y41340968D03*
%TD*%
D22*
%TO.C,D2*%
X54035000Y81280000D03*
D23*
X51495000Y81280000D03*
%TD*%
D16*
%TO.C,SW12*%
X123330000Y47320000D03*
X116830000Y47320000D03*
X123330000Y51820000D03*
X116830000Y51820000D03*
%TD*%
D24*
%TO.C,J2*%
X14150000Y50800000D03*
D25*
X11610000Y50800000D03*
X14150000Y48260000D03*
X11610000Y48260000D03*
X14150000Y45720000D03*
X11610000Y45720000D03*
X14150000Y43180000D03*
X11610000Y43180000D03*
X14150000Y40640000D03*
X11610000Y40640000D03*
X14150000Y38100000D03*
X11610000Y38100000D03*
X14150000Y35560000D03*
X11610000Y35560000D03*
X14150000Y33020000D03*
X11610000Y33020000D03*
%TD*%
D24*
%TO.C,J7*%
X45685233Y36925106D03*
D25*
X48225233Y36925106D03*
X50765233Y36925106D03*
X53305233Y36925106D03*
X55845233Y36925106D03*
X58385233Y36925106D03*
X60925233Y36925106D03*
X63465233Y36925106D03*
X66005233Y36925106D03*
X68545233Y36925106D03*
X71085233Y36925106D03*
X73625233Y36925106D03*
X76165233Y36925106D03*
X78705233Y36925106D03*
X81245233Y36925106D03*
X83785233Y36925106D03*
%TD*%
D26*
%TO.C,Q1*%
X85080233Y42916644D03*
D27*
X86350233Y42916644D03*
X87620233Y42916644D03*
%TD*%
D10*
%TO.C,D16*%
X126084922Y43867444D03*
D11*
X126084922Y41327444D03*
%TD*%
D24*
%TO.C,JP3*%
X53340000Y72441413D03*
D25*
X50800000Y72441413D03*
%TD*%
D28*
%TO.C,J1*%
X11117500Y82900000D03*
D29*
X11117500Y88900000D03*
D30*
X6417500Y85900000D03*
%TD*%
D16*
%TO.C,SW7*%
X99330000Y11320000D03*
X92830000Y11320000D03*
X99330000Y15820000D03*
X92830000Y15820000D03*
%TD*%
%TO.C,J4*%
X37981354Y40295000D03*
%TD*%
%TO.C,SW10*%
X111330000Y23320000D03*
X104830000Y23320000D03*
X111330000Y27820000D03*
X104830000Y27820000D03*
%TD*%
D10*
%TO.C,D11*%
X114100764Y55893525D03*
D11*
X114100764Y53353525D03*
%TD*%
D10*
%TO.C,D8*%
X102078410Y43878437D03*
D11*
X102078410Y41338437D03*
%TD*%
D22*
%TO.C,D1*%
X44455000Y81280000D03*
D23*
X41915000Y81280000D03*
%TD*%
D16*
%TO.C,SW3*%
X21608716Y25400000D03*
X21608716Y18900000D03*
X17108716Y25400000D03*
X17108716Y18900000D03*
%TD*%
D24*
%TO.C,JP2*%
X53340000Y68611413D03*
D25*
X50800000Y68611413D03*
%TD*%
D16*
%TO.C,SW6*%
X99330000Y23320000D03*
X92830000Y23320000D03*
X99330000Y27820000D03*
X92830000Y27820000D03*
%TD*%
%TO.C,SW21*%
X135330000Y11320000D03*
X128830000Y11320000D03*
X135330000Y15820000D03*
X128830000Y15820000D03*
%TD*%
D21*
%TO.C,R7*%
X78686159Y42899356D03*
D18*
X65986159Y42899356D03*
%TD*%
D10*
%TO.C,D4*%
X88900000Y22860000D03*
D11*
X86360000Y22860000D03*
%TD*%
D10*
%TO.C,D9*%
X102078410Y31849431D03*
D11*
X102078410Y29309431D03*
%TD*%
D31*
%TO.C,DS1*%
X138079480Y63096800D03*
X63080900Y94097500D03*
X63080900Y63096800D03*
D15*
X138080000Y94097500D03*
D32*
X68580000Y94097500D03*
D33*
X71120000Y94097500D03*
X73660000Y94097500D03*
X76200000Y94097500D03*
X78740000Y94097500D03*
X81280000Y94097500D03*
X83820000Y94097500D03*
X86360000Y94097500D03*
X88900000Y94097500D03*
X91440000Y94097500D03*
X93980000Y94097500D03*
X96520000Y94097500D03*
X99060000Y94097500D03*
X101600000Y94097500D03*
X104140000Y94097500D03*
X106680000Y94097500D03*
%TD*%
D16*
%TO.C,SW9*%
X111330000Y35320000D03*
X104830000Y35320000D03*
X111330000Y39820000D03*
X104830000Y39820000D03*
%TD*%
D10*
%TO.C,D5*%
X88900000Y17780000D03*
D11*
X86360000Y17780000D03*
%TD*%
D16*
%TO.C,SW13*%
X123330000Y35320000D03*
X116830000Y35320000D03*
X123330000Y39820000D03*
X116830000Y39820000D03*
%TD*%
%TO.C,SW11*%
X111330000Y11320000D03*
X104830000Y11320000D03*
X111330000Y15820000D03*
X104830000Y15820000D03*
%TD*%
D10*
%TO.C,D6*%
X88900000Y12700000D03*
D11*
X86360000Y12700000D03*
%TD*%
D12*
%TO.C,JP1*%
X7620000Y58420000D03*
D13*
X7620000Y59720000D03*
D14*
X7620000Y61020000D03*
%TD*%
D16*
%TO.C,SW5*%
X99330000Y35320000D03*
X92830000Y35320000D03*
X99330000Y39820000D03*
X92830000Y39820000D03*
%TD*%
D23*
%TO.C,RV1*%
X49577824Y52771726D03*
X52117824Y52771726D03*
X54657824Y52771726D03*
%TD*%
D15*
%TO.C,H3*%
X4080000Y5080000D03*
%TD*%
D16*
%TO.C,J5*%
X37981354Y43795000D03*
%TD*%
%TO.C,SW8*%
X111330000Y47320000D03*
X104830000Y47320000D03*
X111330000Y51820000D03*
X104830000Y51820000D03*
%TD*%
D10*
%TO.C,D3*%
X88900000Y27940000D03*
D11*
X86360000Y27940000D03*
%TD*%
D10*
%TO.C,D17*%
X126084922Y31838438D03*
D11*
X126084922Y29298438D03*
%TD*%
D16*
%TO.C,SW14*%
X123330000Y23320000D03*
X116830000Y23320000D03*
X123330000Y27820000D03*
X116830000Y27820000D03*
%TD*%
D24*
%TO.C,JP5*%
X60950233Y49625106D03*
D25*
X60950233Y52165106D03*
X60950233Y54705106D03*
%TD*%
D19*
%TO.C,SW17*%
X16933583Y9414436D03*
D20*
X11853583Y9414436D03*
D19*
X14393583Y9414436D03*
%TD*%
D16*
%TO.C,SW16*%
X135330000Y47320000D03*
X128830000Y47320000D03*
X135330000Y51820000D03*
X128830000Y51820000D03*
%TD*%
%TO.C,J3*%
X37981354Y36060000D03*
%TD*%
%TO.C,SW15*%
X123330000Y11320000D03*
X116830000Y11320000D03*
X123330000Y15820000D03*
X116830000Y15820000D03*
%TD*%
D21*
%TO.C,R1*%
X41910000Y94720000D03*
D18*
X54610000Y94720000D03*
%TD*%
M02*
