M48
; DRILL file {KiCad (6.0.4-0)} date Monday, August 15, 2022 at 02:03:29 PM
; FORMAT={-:-/ absolute / metric / decimal}
; #@! TF.CreationDate,2022-08-15T14:03:29-05:00
; #@! TF.GenerationSoftware,Kicad,Pcbnew,(6.0.4-0)
; #@! TF.FileFunction,Plated,1,2,PTH
FMAT,2
METRIC
; #@! TA.AperFunction,Plated,PTH,ViaDrill
T1C0.400
; #@! TA.AperFunction,Plated,PTH,ComponentDrill
T2C0.750
; #@! TA.AperFunction,Plated,PTH,ComponentDrill
T3C0.800
; #@! TA.AperFunction,Plated,PTH,ComponentDrill
T4C0.900
; #@! TA.AperFunction,Plated,PTH,ComponentDrill
T5C1.000
; #@! TA.AperFunction,Plated,PTH,ComponentDrill
T6C1.100
; #@! TA.AperFunction,Plated,PTH,ComponentDrill
T7C1.200
; #@! TA.AperFunction,Plated,PTH,ComponentDrill
T8C2.500
; #@! TA.AperFunction,Plated,PTH,ComponentDrill
T9C3.000
%
G90
G05
T1
X6.31Y39.289
X6.535Y55.88
X7.62Y38.1
X11.665Y55.88
X16.524Y55.029
X23.623Y63.059
X23.745Y38.1
X24.484Y63.565
X24.675Y40.64
X25.4Y81.28
X25.4Y35.56
X26.697Y61.109
X27.779Y39.388
X30.455Y63.222
X30.48Y48.26
X31.455Y63.222
X31.479Y50.8
X31.505Y45.72
X32.246Y45.049
X33.08Y38.87
T2
X85.08Y42.917
X86.35Y42.917
X87.62Y42.917
T3
X11.854Y9.414
X14.394Y9.414
X16.934Y9.414
X27.94Y32.122
X27.94Y29.582
X27.94Y27.042
X27.94Y24.502
X27.94Y21.962
X27.94Y19.422
X27.94Y16.882
X28.079Y9.414
X30.619Y9.414
X33.159Y9.414
X35.56Y32.122
X35.56Y29.582
X35.56Y27.042
X35.56Y24.502
X35.56Y21.962
X35.56Y19.422
X35.56Y16.882
X41.91Y94.72
X41.91Y89.72
X54.61Y94.72
X54.61Y89.72
X64.75Y55.985
X64.75Y48.365
X65.986Y42.899
X67.29Y55.985
X67.29Y48.365
X69.83Y55.985
X69.83Y48.365
X72.37Y55.985
X72.37Y48.365
X74.91Y55.985
X74.91Y48.365
X77.45Y55.985
X77.45Y48.365
X78.686Y42.899
X79.99Y55.985
X79.99Y48.365
X82.53Y55.985
X82.53Y48.365
T4
X41.915Y81.28
X44.455Y81.28
X51.495Y81.28
X54.035Y81.28
T5
X11.61Y50.8
X11.61Y48.26
X11.61Y45.72
X11.61Y43.18
X11.61Y40.64
X11.61Y38.1
X11.61Y35.56
X11.61Y33.02
X14.15Y50.8
X14.15Y48.26
X14.15Y45.72
X14.15Y43.18
X14.15Y40.64
X14.15Y38.1
X14.15Y35.56
X14.15Y33.02
X20.32Y90.17
X20.32Y87.63
X20.32Y85.09
X20.32Y82.55
X20.32Y80.01
X20.32Y77.47
X20.32Y74.93
X20.32Y72.39
X20.32Y69.85
X20.32Y67.31
X20.32Y64.77
X20.32Y62.23
X20.32Y59.69
X20.32Y57.15
X20.32Y54.61
X35.56Y90.17
X35.56Y87.63
X35.56Y85.09
X35.56Y82.55
X35.56Y80.01
X35.56Y77.47
X35.56Y74.93
X35.56Y72.39
X35.56Y69.85
X35.56Y67.31
X35.56Y64.77
X35.56Y62.23
X35.56Y59.69
X35.56Y57.15
X35.56Y54.61
X45.685Y36.925
X48.225Y36.925
X49.578Y52.772
X50.765Y36.925
X50.8Y72.441
X50.8Y68.611
X52.118Y52.772
X53.305Y36.925
X53.34Y72.441
X53.34Y68.611
X54.658Y52.772
X55.845Y36.925
X58.385Y36.925
X60.925Y36.925
X60.95Y54.705
X60.95Y52.165
X60.95Y49.625
X63.465Y36.925
X66.005Y36.925
X68.545Y36.925
X71.085Y36.925
X73.625Y36.925
X76.165Y36.925
X78.705Y36.925
X81.245Y36.925
X83.785Y36.925
T6
X4.16Y25.4
X4.16Y18.9
X7.91Y74.37
X7.91Y67.87
X8.66Y25.4
X8.66Y18.9
X12.41Y74.37
X12.41Y67.87
X17.109Y25.4
X17.109Y18.9
X21.609Y25.4
X21.609Y18.9
X86.36Y27.94
X86.36Y22.86
X86.36Y17.78
X86.36Y12.7
X88.9Y27.94
X88.9Y22.86
X88.9Y17.78
X88.9Y12.7
X92.83Y51.82
X92.83Y47.32
X92.83Y39.82
X92.83Y35.32
X92.83Y27.82
X92.83Y23.32
X92.83Y15.82
X92.83Y11.32
X99.33Y51.82
X99.33Y47.32
X99.33Y39.82
X99.33Y35.32
X99.33Y27.82
X99.33Y23.32
X99.33Y15.82
X99.33Y11.32
X102.078Y55.891
X102.078Y53.351
X102.078Y43.878
X102.078Y41.338
X102.078Y31.849
X102.078Y29.309
X102.078Y19.866
X102.078Y17.326
X104.83Y51.82
X104.83Y47.32
X104.83Y39.82
X104.83Y35.32
X104.83Y27.82
X104.83Y23.32
X104.83Y15.82
X104.83Y11.32
X111.33Y51.82
X111.33Y47.32
X111.33Y39.82
X111.33Y35.32
X111.33Y27.82
X111.33Y23.32
X111.33Y15.82
X111.33Y11.32
X114.101Y55.894
X114.101Y53.354
X114.101Y43.881
X114.101Y41.341
X114.101Y31.852
X114.101Y29.312
X114.101Y19.869
X114.101Y17.329
X116.83Y51.82
X116.83Y47.32
X116.83Y39.82
X116.83Y35.32
X116.83Y27.82
X116.83Y23.32
X116.83Y15.82
X116.83Y11.32
X123.33Y51.82
X123.33Y47.32
X123.33Y39.82
X123.33Y35.32
X123.33Y27.82
X123.33Y23.32
X123.33Y15.82
X123.33Y11.32
X126.085Y55.88
X126.085Y53.34
X126.085Y43.867
X126.085Y41.327
X126.085Y31.838
X126.085Y29.298
X126.085Y19.855
X126.085Y17.315
X128.83Y51.82
X128.83Y47.32
X128.83Y39.82
X128.83Y35.32
X128.83Y27.82
X128.83Y23.32
X128.83Y15.82
X128.83Y11.32
X135.33Y51.82
X135.33Y47.32
X135.33Y39.82
X135.33Y35.32
X135.33Y27.82
X135.33Y23.32
X135.33Y15.82
X135.33Y11.32
T7
X68.58Y94.097
X71.12Y94.097
X73.66Y94.097
X76.2Y94.097
X78.74Y94.097
X81.28Y94.097
X83.82Y94.097
X86.36Y94.097
X88.9Y94.097
X91.44Y94.097
X93.98Y94.097
X96.52Y94.097
X99.06Y94.097
X101.6Y94.097
X104.14Y94.097
X106.68Y94.097
T8
X63.081Y94.097
X63.081Y63.097
X138.079Y63.097
T9
X4.08Y94.065
X4.08Y5.08
X138.08Y94.097
X138.081Y5.08
T5
G00X6.417Y86.9
M15
G01X6.417Y84.9
M16
G05
G00X12.117Y88.9
M15
G01X10.117Y88.9
M16
G05
G00X12.117Y82.9
M15
G01X10.117Y82.9
M16
G05
T0
M30
